Coordinates
version=1
nRows=34
nColumns=34
inDegrees=yes
inDegrees=no

Units are S.I. units (second, meters, Newtons, ...)
If the header above contains a line with 'inDegrees', this indicates whether rotational values are in degrees (yes) or radians (no).

endheader
time	pelvis_tilt	pelvis_list	pelvis_rotation	pelvis_tx	pelvis_ty	pelvis_tz	hip_flexion_r	hip_adduction_r	hip_rotation_r	knee_angle_r	ankle_angle_r	subtalar_angle_r	mtp_angle_r	hip_flexion_l	hip_adduction_l	hip_rotation_l	knee_angle_l	ankle_angle_l	subtalar_angle_l	mtp_angle_l	lumbar_extension	lumbar_bending	lumbar_rotation	arm_flex_r	arm_add_r	arm_rot_r	elbow_flex_r	pro_sup_r	arm_flex_l	arm_add_l	arm_rot_l	elbow_flex_l	pro_sup_l
8.133333 0.254271 -0.211140 -0.037742 -0.015176 0.008034 -0.004261 1.353906 0.076235 -0.334035 0.790578 0.154313 0.110937 0.000000 1.381556 -0.075720 0.077753 0.673508 -0.160832 -0.255964 0.000000 -0.714154 0.032240 -0.183172 1.609457 -0.186294 0.376629 1.283744 1.574305 0.915744 -0.517906 0.229951 1.007016 1.322520
8.150000 0.266392 -0.200780 -0.040194 -0.015239 0.008052 -0.004374 1.317442 0.070623 -0.314047 0.698082 -0.003560 0.007044 0.000000 1.355960 -0.065769 0.074869 0.659476 -0.172366 -0.287143 0.000000 -0.750386 0.019703 -0.210352 1.695721 -0.188239 0.396381 1.284195 1.586977 1.015767 -0.514617 0.266157 0.965150 1.328170
8.166667 0.260149 -0.187627 -0.035106 -0.015046 0.008203 -0.004358 1.298396 0.052671 -0.315424 0.648496 -0.121856 -0.047432 0.000000 1.349519 -0.048906 0.065306 0.657265 -0.188349 -0.319572 0.000000 -0.767930 0.005439 -0.256253 1.748404 -0.184876 0.401781 1.316137 1.594387 1.088303 -0.521314 0.272185 0.940205 1.328426
8.183333 0.244160 -0.178744 -0.038211 -0.014944 0.008235 -0.004376 1.297240 0.041162 -0.310894 0.620791 -0.200863 -0.111722 0.000000 1.359153 -0.042789 0.060926 0.661292 -0.179839 -0.332079 0.000000 -0.771340 -0.011222 -0.294471 1.792007 -0.188173 0.411603 1.357782 1.603623 1.148637 -0.526164 0.283581 0.924986 1.328213
8.200000 0.225971 -0.172735 -0.037894 -0.014939 0.008172 -0.004367 1.310813 0.027513 -0.310655 0.613670 -0.260447 -0.151379 0.000000 1.388996 -0.034619 0.071670 0.690285 -0.182558 -0.356867 0.000000 -0.771075 -0.023716 -0.328054 1.833917 -0.197654 0.423196 1.402277 1.612984 1.203605 -0.523770 0.296347 0.918154 1.326685
8.216667 0.195994 -0.168813 -0.037846 -0.014814 0.008210 -0.004416 1.334377 0.014977 -0.311833 0.612057 -0.295265 -0.169201 0.000000 1.430290 -0.023035 0.084460 0.735098 -0.165800 -0.344674 0.000000 -0.759439 -0.028113 -0.365885 1.871260 -0.198199 0.433628 1.455648 1.618496 1.244560 -0.528869 0.290282 0.910552 1.323927
8.233333 0.171250 -0.168552 -0.052411 -0.014764 0.008216 -0.004396 1.361001 0.022286 -0.305375 0.625158 -0.319406 -0.179624 0.000000 1.446051 -0.035898 0.086690 0.730710 -0.148598 -0.338977 0.000000 -0.752056 -0.041610 -0.386954 1.912045 -0.197110 0.449228 1.490537 1.624740 1.291593 -0.527137 0.279251 0.900198 1.319153
8.250000 0.142428 -0.189990 -0.091168 -0.014761 0.008248 -0.004375 1.391082 0.063129 -0.329315 0.669972 -0.288217 -0.177142 0.000000 1.449238 -0.077010 0.097113 0.687084 -0.131567 -0.356770 0.000000 -0.743986 -0.045309 -0.374482 1.963889 -0.188270 0.470508 1.515120 1.632909 1.339025 -0.522796 0.262692 0.880785 1.307990
8.266667 0.084952 -0.223636 -0.140219 -0.014795 0.008144 -0.004313 1.457502 0.113752 -0.365913 0.730652 -0.179840 -0.086686 0.000000 1.524589 -0.125736 0.148521 0.706861 -0.145874 -0.376229 0.000000 -0.710974 -0.032353 -0.354402 2.015100 -0.158229 0.493625 1.520903 1.638239 1.379363 -0.534644 0.244338 0.864411 1.296365
8.283333 0.066962 -0.252491 -0.153805 -0.014738 0.008149 -0.004328 1.478158 0.131775 -0.368481 0.750555 -0.100854 -0.010405 0.000000 1.553934 -0.143647 0.178326 0.720785 -0.143251 -0.388492 0.000000 -0.716488 -0.009151 -0.353359 2.077842 -0.125935 0.518333 1.504084 1.641936 1.426074 -0.544497 0.229166 0.842586 1.281964
8.300000 0.053212 -0.265417 -0.156995 -0.014734 0.008152 -0.004289 1.482369 0.145221 -0.360190 0.703003 -0.094775 0.000556 0.000000 1.571610 -0.144924 0.191819 0.727181 -0.158974 -0.431517 0.000000 -0.725751 -0.002132 -0.359583 2.127597 -0.095791 0.530249 1.488033 1.643469 1.479974 -0.546864 0.222372 0.809457 1.268779
8.316667 0.048545 -0.266712 -0.145254 -0.014596 0.008161 -0.004271 1.462780 0.142130 -0.331418 0.620583 -0.184704 -0.051883 0.000000 1.578080 -0.136574 0.175897 0.723829 -0.164146 -0.431694 0.000000 -0.739737 -0.008922 -0.367197 2.162826 -0.085726 0.542274 1.478379 1.643051 1.534917 -0.528557 0.248718 0.760196 1.238142
8.333333 0.049624 -0.259763 -0.121188 -0.014540 0.008068 -0.004329 1.447854 0.119185 -0.316228 0.565227 -0.258618 -0.090202 0.000000 1.577649 -0.112159 0.147655 0.714349 -0.177302 -0.424081 0.000000 -0.761131 -0.014048 -0.391064 2.193053 -0.064084 0.541537 1.457022 1.640540 1.585910 -0.516678 0.255220 0.722210 1.223860
8.350000 0.040432 -0.253128 -0.102301 -0.014647 0.007939 -0.004404 1.452733 0.089519 -0.320201 0.544620 -0.300330 -0.105113 0.000000 1.601368 -0.085544 0.145790 0.737852 -0.202046 -0.438734 0.000000 -0.784081 -0.012114 -0.393448 2.254265 -0.046302 0.557839 1.413364 1.630838 1.659057 -0.491134 0.299846 0.654504 1.196586
8.366667 0.031982 -0.247709 -0.086834 -0.014560 0.008019 -0.004491 1.467215 0.063240 -0.327476 0.574450 -0.315049 -0.149672 0.000000 1.607914 -0.061461 0.139686 0.739940 -0.208905 -0.437596 0.000000 -0.809708 -0.006772 -0.391894 2.300052 -0.008997 0.559708 1.357160 1.619205 1.701309 -0.471877 0.312855 0.611592 1.174415
8.383333 0.003324 -0.239162 -0.090283 -0.014417 0.008023 -0.004438 1.502441 0.054778 -0.330102 0.610557 -0.305153 -0.188365 0.000000 1.626761 -0.059194 0.127324 0.724459 -0.212894 -0.420954 0.000000 -0.808574 -0.016495 -0.369396 2.315829 0.022165 0.551665 1.332884 1.611421 1.695896 -0.452521 0.313417 0.598553 1.164196
8.400000 -0.009761 -0.230376 -0.090319 -0.014360 0.007979 -0.004480 1.520880 0.049145 -0.333303 0.633887 -0.294152 -0.198253 0.000000 1.623767 -0.057141 0.110257 0.698223 -0.224099 -0.417931 0.000000 -0.817774 -0.023317 -0.347557 2.307740 0.064749 0.536231 1.297703 1.598587 1.677844 -0.435068 0.299442 0.580077 1.147982
8.416667 -0.028516 -0.223730 -0.083023 -0.014265 0.007873 -0.004397 1.557941 0.033799 -0.338474 0.669262 -0.273653 -0.206504 0.000000 1.649707 -0.052183 0.110077 0.718401 -0.228621 -0.410642 0.000000 -0.812874 -0.023047 -0.334671 2.277044 0.119453 0.509083 1.256166 1.562741 1.618449 -0.427851 0.245885 0.595861 1.104069
8.433333 -0.048769 -0.215544 -0.084408 -0.014097 0.007795 -0.004498 1.595816 0.017433 -0.338487 0.717781 -0.255775 -0.216362 0.000000 1.680985 -0.042328 0.115826 0.745999 -0.262800 -0.448809 0.000000 -0.801047 -0.030378 -0.310069 2.224936 0.170764 0.473494 1.235976 1.528749 1.520482 -0.412117 0.185676 0.616965 1.073326
8.450000 -0.052504 -0.210978 -0.079355 -0.013986 0.007791 -0.004548 1.617658 -0.000789 -0.338690 0.756713 -0.237503 -0.222284 0.000000 1.695180 -0.034161 0.110107 0.761238 -0.275790 -0.470524 0.000000 -0.799290 -0.034786 -0.274254 2.150910 0.206109 0.460443 1.211870 1.487390 1.395171 -0.379844 0.082061 0.660910 1.044615
8.466667 -0.053862 -0.211377 -0.069383 -0.013911 0.007707 -0.004538 1.635070 -0.017736 -0.344067 0.785971 -0.220402 -0.222497 0.000000 1.707140 -0.022946 0.101003 0.765737 -0.295774 -0.495954 0.000000 -0.797658 -0.035886 -0.241846 2.056764 0.229175 0.447990 1.212714 1.461078 1.281046 -0.357359 0.020090 0.690138 1.035711
8.483333 -0.047792 -0.207466 -0.064207 -0.013966 0.007682 -0.004618 1.638779 -0.027102 -0.336946 0.796505 -0.219934 -0.227175 0.000000 1.705470 -0.019694 0.082529 0.762169 -0.301184 -0.493567 0.000000 -0.815536 -0.041236 -0.212271 1.993542 0.239732 0.445861 1.212343 1.417117 1.187521 -0.331042 -0.063013 0.746365 1.031784
8.500000 -0.096037 -0.202191 -0.066447 -0.013282 0.007901 -0.004272 1.691543 -0.017522 -0.329350 0.834678 -0.192680 -0.241558 0.000000 1.750903 -0.037188 0.067338 0.782376 -0.280975 -0.488157 0.000000 -0.764351 -0.062527 -0.205344 1.855376 0.257040 0.442541 1.312429 1.400423 1.037007 -0.352215 -0.113651 0.823002 1.029521
8.516667 -0.126937 -0.209794 -0.088105 -0.013278 0.007909 -0.004138 1.738015 0.020254 -0.346793 0.940900 -0.067939 -0.200016 0.000000 1.776154 -0.078859 0.058029 0.785074 -0.225474 -0.398620 0.000000 -0.728635 -0.079928 -0.178281 1.767532 0.286821 0.448896 1.330138 1.386180 0.908861 -0.363199 -0.186822 0.895167 1.025196
8.533333 -0.120884 -0.203713 -0.085650 -0.013282 0.007827 -0.004167 1.756853 0.028180 -0.315383 0.966379 -0.006024 -0.206352 0.000000 1.775619 -0.092909 0.031885 0.802239 -0.165100 -0.337833 0.000000 -0.728536 -0.104458 -0.154035 1.707581 0.280621 0.440500 1.355890 1.382330 0.827000 -0.362161 -0.196264 0.931775 1.026621
8.550000 -0.091598 -0.189910 -0.055818 -0.013450 0.007862 -0.004248 1.723974 0.014140 -0.271108 0.908988 -0.051103 -0.249347 0.000000 1.737550 -0.073421 -0.013150 0.787199 -0.180365 -0.356586 0.000000 -0.766987 -0.120780 -0.144999 1.681764 0.265891 0.399608 1.359475 1.379018 0.786749 -0.351087 -0.197818 0.965385 1.031768
8.566667 -0.059101 -0.172273 -0.031120 -0.013651 0.007980 -0.004329 1.675554 -0.002048 -0.238372 0.856953 -0.101971 -0.270789 0.000000 1.681955 -0.053771 -0.059566 0.748234 -0.192200 -0.342904 0.000000 -0.816730 -0.133124 -0.126016 1.677665 0.243512 0.350807 1.334921 1.377621 0.776049 -0.326215 -0.184407 0.991912 1.040081
8.583333 -0.024828 -0.156966 -0.008321 -0.013749 0.007997 -0.004493 1.636343 -0.027767 -0.215325 0.832405 -0.147622 -0.274191 0.000000 1.631980 -0.031428 -0.097088 0.710309 -0.201721 -0.314228 0.000000 -0.863174 -0.130962 -0.103690 1.681432 0.217890 0.319567 1.301018 1.379597 0.758811 -0.293094 -0.168975 1.015024 1.051882
8.600000 0.014495 -0.141220 0.010008 -0.014058 0.007969 -0.004590 1.596495 -0.049891 -0.198724 0.813071 -0.184441 -0.272315 0.000000 1.577490 -0.008641 -0.128615 0.664147 -0.218653 -0.288195 0.000000 -0.913150 -0.124273 -0.073137 1.702253 0.188526 0.303621 1.254617 1.381152 0.749809 -0.253794 -0.151800 1.036349 1.062024
8.616667 0.037643 -0.129054 0.024666 -0.013917 0.008110 -0.004604 1.564110 -0.066034 -0.195738 0.799347 -0.197726 -0.270222 0.000000 1.536625 0.007005 -0.150861 0.632016 -0.236961 -0.271135 0.000000 -0.945371 -0.114743 -0.049248 1.695998 0.173556 0.311414 1.237149 1.385225 0.706690 -0.232032 -0.141578 1.046486 1.072812
8.633333 0.063124 -0.118344 0.036216 -0.014115 0.008108 -0.004625 1.534569 -0.077648 -0.192967 0.788583 -0.207337 -0.281642 0.000000 1.497512 0.015199 -0.167543 0.603650 -0.236855 -0.238030 0.000000 -0.972215 -0.105057 -0.019202 1.686508 0.161523 0.326309 1.214879 1.389456 0.660218 -0.210736 -0.136822 1.063049 1.084383
8.650000 0.087590 -0.108253 0.052276 -0.014156 0.008132 -0.004648 1.508937 -0.090529 -0.186444 0.779444 -0.222401 -0.287362 0.000000 1.460670 0.029447 -0.189593 0.577206 -0.232300 -0.213580 0.000000 -0.991064 -0.094218 0.003381 1.655570 0.158148 0.331594 1.208594 1.392247 0.598388 -0.201219 -0.134510 1.079415 1.096277
8.666667 0.101842 -0.096320 0.057910 -0.014114 0.008186 -0.004594 1.494656 -0.093378 -0.180559 0.783803 -0.217587 -0.293645 0.000000 1.430241 0.031095 -0.216005 0.552116 -0.215015 -0.179749 0.000000 -0.990726 -0.097644 0.028353 1.600975 0.152446 0.339760 1.207695 1.395096 0.519187 -0.198715 -0.140806 1.090539 1.106536
8.683333 0.118752 -0.090763 0.065941 -0.014126 0.008202 -0.004625 1.477767 -0.100460 -0.177136 0.786596 -0.209562 -0.278325 0.000000 1.409036 0.035735 -0.232113 0.549640 -0.204574 -0.169662 0.000000 -0.983914 -0.099392 0.055495 1.532012 0.142585 0.327685 1.217894 1.397165 0.430013 -0.199000 -0.146612 1.111540 1.121834
